<svg width="512" height="513" viewBox="0 0 512 513" fill="none" xmlns="http://www.w3.org/2000/svg">
<path d="M384.579 121.867C384.579 84.5515 354.329 54.3011 317.014 54.3011H195.867C158.552 54.3011 128.301 84.5515 128.301 121.867V392.125C128.301 429.44 158.552 459.69 195.867 459.69H317.014C354.329 459.69 384.579 429.44 384.579 392.125V121.867ZM407.88 392.125C407.88 442.307 367.196 482.987 317.014 482.987H195.867C145.684 482.987 105 442.307 105 392.125V121.867C105 71.6843 145.684 31 195.867 31H317.014C367.196 31 407.88 71.6843 407.88 121.867V392.125Z" fill="#EEF3FB"/>
<path d="M412.032 40.7748C412.032 29.8376 403.167 20.9719 392.229 20.9719H368.933C357.995 20.9719 349.13 29.8376 349.13 40.7748V50.0918C349.13 61.029 357.995 69.8948 368.933 69.8948H392.229C403.167 69.8948 412.032 61.029 412.032 50.0918V40.7748ZM433 50.0918C433 72.6096 414.747 90.8667 392.229 90.8667H368.933C346.415 90.8667 328.158 72.6096 328.158 50.0918V40.7748C328.158 18.2571 346.415 0 368.933 0H392.229C414.747 0 433 18.2571 433 40.7748V50.0918Z" fill="#EEF3FB"/>
<path d="M286.291 132.572C292.761 118.552 309.373 112.433 323.392 118.903C337.41 125.374 343.53 141.982 337.061 156.001L225.227 398.303C218.756 412.323 202.148 418.442 188.129 411.972C174.11 405.501 167.991 388.894 174.461 374.874L286.291 132.572Z" fill="#EEF3FB" fill-opacity="0.18"/>
<path d="M302.356 155.935H283.717C274.71 155.935 267.409 163.237 267.409 172.244V190.882C267.409 199.89 274.71 207.191 283.717 207.191H302.356C311.363 207.191 318.665 199.89 318.665 190.882V172.244C318.665 163.237 311.363 155.935 302.356 155.935Z" fill="#5AA6FF"/>
<path d="M265.079 239.809H246.44C237.433 239.809 230.131 247.111 230.131 256.118V274.757C230.131 283.764 237.433 291.065 246.44 291.065H265.079C274.086 291.065 281.388 283.764 281.388 274.757V256.118C281.388 247.111 274.086 239.809 265.079 239.809Z" fill="#5AA6FF"/>
<path d="M227.802 323.683H209.163C200.156 323.683 192.854 330.984 192.854 339.992V358.63C192.854 367.637 200.156 374.939 209.163 374.939H227.802C236.809 374.939 244.11 367.637 244.11 358.63V339.992C244.11 330.984 236.809 323.683 227.802 323.683Z" fill="#5AA6FF"/>
</svg>
